<svg width="1200" height="630" viewBox="0 0 1200 630" fill="none" xmlns="http://www.w3.org/2000/svg">
  <rect width="1200" height="630" fill="#2563eb"/>
  
  <!-- Logo/Icon -->
  <rect x="40" y="40" width="120" height="120" rx="16" fill="white"/>
  <svg x="80" y="80" width="40" height="40" viewBox="0 0 24 24" fill="#2563eb">
    <path d="M4 6h6v20H4V6z" fill="white"/>
    <path d="M22 6h6v20h-6V6z" fill="white"/>
    <path d="M4 6h6v20H4V6z" stroke="white" stroke-width="1" fill="none"/>
    <path d="M22 6h6v20h-6V6z" stroke="white" stroke-width="1" fill="none"/>
    <path d="M10 6h12v20H10V6z" fill="white" opacity="0.3"/>
    <path d="M10 6h12v20H10V6z" stroke="white" stroke-width="1" fill="none"/>
    <path d="M12 10h8v2h-8v-2z" fill="#2563eb"/>
    <path d="M12 14h8v2h-8v-2z" fill="#2563eb"/>
    <path d="M12 18h6v2h-6v-2z" fill="#2563eb"/>
  </svg>
  
  <!-- Title -->
  <text x="200" y="120" font-family="Arial, sans-serif" font-size="48" font-weight="bold" fill="white">Or Halachá</text>
  
  <!-- Subtitle -->
  <text x="200" y="180" font-family="Arial, sans-serif" font-size="24" fill="white" opacity="0.9">Shulchan Aruch em Português</text>
  
  <!-- Description -->
  <text x="200" y="220" font-family="Arial, sans-serif" font-size="18" fill="white" opacity="0.8">Acesse o Shulchan Aruch completo em português,</text>
  <text x="200" y="250" font-family="Arial, sans-serif" font-size="18" fill="white" opacity="0.8">com explicações práticas e navegação fácil.</text>
  
  <!-- Decorative elements -->
  <circle cx="1000" cy="100" r="60" fill="white" opacity="0.1"/>
  <circle cx="1100" cy="200" r="40" fill="white" opacity="0.1"/>
  <circle cx="1050" cy="300" r="30" fill="white" opacity="0.1"/>
</svg>
